<?xml version="1.0" encoding="UTF-8" standalone="no"?> <svg width="512" height="512" viewBox="0 0 512 512" fill="none" xmlns="http://www.w3.org/2000/svg">
<path d="M216 288V336C216 389.019 276.889 432 352 432C427.111 432 488 389.019 488 336V288H216Z" fill="#E5707F"/>
<path d="M440 409.188C445.621 405.833 450.971 402.043 456 397.853V344H440V409.188Z" fill="#F78F9C"/>
<path d="M392 427.777C397.489 426.586 402.822 425.164 408 423.51V368H392V427.777Z" fill="#F78F9C"/>
<path d="M344 431.83C346.648 431.939 349.314 432 352 432C354.686 432 357.352 431.939 360 431.83V368H344V431.83Z" fill="#F78F9C"/>
<path d="M296 423.51C301.169 425.16 306.502 426.583 312 427.777V368H296V423.51Z" fill="#F78F9C"/>
<path d="M248 397.853C253.029 402.043 258.379 405.833 264 409.188V344H248V397.853Z" fill="#F78F9C"/>
<path d="M352 384C427.111 384 488 341.019 488 288C488 234.981 427.111 192 352 192C276.889 192 216 234.981 216 288C216 341.019 276.889 384 352 384Z" fill="#F78F9C"/>
<path d="M352 360C322.76 360 295.155 352.922 274.268 340.068C252.17 326.47 240 307.978 240 288C240 268.022 252.17 249.53 274.268 235.932C295.155 223.078 322.76 216 352 216C381.24 216 408.845 223.078 429.732 235.932C451.83 249.53 464 268.022 464 288C464 307.978 451.83 326.47 429.732 340.068C408.845 352.922 381.24 360 352 360ZM352 232C325.681 232 301.053 238.235 282.654 249.559C265.466 260.136 256 273.787 256 288C256 302.213 265.466 315.864 282.654 326.441C301.053 337.765 325.681 344 352 344C378.319 344 402.947 337.765 421.346 326.441C438.534 315.864 448 302.213 448 288C448 273.787 438.534 260.136 421.346 249.559C402.947 238.235 378.319 232 352 232Z" fill="#F9ACB9"/>
<path d="M24 336V392C24 445.019 84.8893 488 160 488C235.111 488 296 445.019 296 392V336H24Z" fill="#3F589E"/>
<path d="M248 465.188C253.621 461.833 258.971 458.043 264 453.853V392H248V465.188Z" fill="#576CD3"/>
<path d="M200 483.777C205.489 482.586 210.822 481.164 216 479.51V424H200V483.777Z" fill="#576CD3"/>
<path d="M152 487.83C154.648 487.939 157.314 488 160 488C162.686 488 165.352 487.939 168 487.83V432H152V487.83Z" fill="#576CD3"/>
<path d="M104 479.51C109.169 481.16 114.502 482.583 120 483.777V424H104V479.51Z" fill="#576CD3"/>
<path d="M56 453.853C61.0293 458.043 66.379 461.833 72 465.188V400H56V453.853Z" fill="#576CD3"/>
<path d="M160 440C235.111 440 296 393.438 296 336C296 278.562 235.111 232 160 232C84.8893 232 24 278.562 24 336C24 393.438 84.8893 440 160 440Z" fill="#576CD3"/>
<path d="M108.528 317.451L99.4727 304.262C114.524 293.927 136.586 288 160 288V304C139.741 304 120.98 308.903 108.528 317.451Z" fill="#7F9AE5"/>
<path d="M160 384C115.14 384 80 362.916 80 336C80.0062 332.333 80.6584 328.695 81.9268 325.254L96.9541 330.746C96.3303 332.428 96.0073 334.206 96 336C96 343.538 102.187 351.299 112.973 357.291C125.404 364.197 142.105 368 160 368C162.505 368 165.032 367.923 167.51 367.771L168.49 383.741C165.687 383.913 162.831 384 160 384Z" fill="#7F9AE5"/>
<path d="M194.129 379.554L189.871 364.13C210.285 358.495 224 347.19 224 336C223.993 334.206 223.67 332.428 223.046 330.746L238.073 325.254C239.342 328.695 239.994 332.333 240 336C240 355.054 222.423 371.742 194.129 379.554Z" fill="#7F9AE5"/>
<path d="M60.3115 372.665C52.2573 361.445 48 348.767 48 336C48 298.442 83.6558 266.381 134.709 258.031L137.291 273.822C116.324 277.251 97.4087 285.505 84.0298 297.062C70.9263 308.383 64 321.848 64 336C64 345.533 67.1323 354.729 73.3096 363.335L60.3115 372.665Z" fill="#7F9AE5"/>
<path d="M160.001 416.001C134.552 416.001 110.594 410.116 90.7188 398.981L98.5381 385.022C115.78 394.682 137.608 400.001 160.001 400.001C201.08 400.001 237.632 382.464 250.958 356.363L265.208 363.639C249.219 394.958 206.939 416.001 160.001 416.001Z" fill="#7F9AE5"/>
<path d="M296 24H256V328H296C336.313 328 374.975 311.986 403.48 283.48C431.986 254.975 448 216.313 448 176V176C448 135.687 431.986 97.0252 403.48 68.5197C374.975 40.0142 336.313 24 296 24V24Z" fill="#00A16C"/>
<path d="M406.839 72H352V88H419.95C415.946 82.3765 411.566 77.0309 406.839 72V72Z" fill="#00B378"/>
<path d="M437.348 120H384V136H442.67C441.196 130.572 439.419 125.23 437.348 120V120Z" fill="#00B378"/>
<path d="M400 184H447.791C447.928 181.351 447.998 178.684 448 176V176C448 173.316 447.93 170.65 447.791 168H400V184Z" fill="#00B378"/>
<path d="M442.67 216H384V232H437.348C439.419 226.77 441.196 221.428 442.67 216V216Z" fill="#00B378"/>
<path d="M419.95 264H360V280H406.839C411.566 274.969 415.946 269.623 419.95 264V264Z" fill="#00B378"/>
<path d="M256 328C339.947 328 408 259.947 408 176C408 92.0527 339.947 24 256 24C172.053 24 104 92.0527 104 176C104 259.947 172.053 328 256 328Z" fill="#00B378"/>
<path d="M168.975 269.866C145.912 248.472 131.535 219.335 128.586 188.017C125.636 156.698 134.322 125.39 152.985 100.067C171.648 74.7438 198.981 57.1789 229.769 50.7242C260.557 44.2695 292.643 49.3768 319.906 65.0716L311.907 78.929C288.051 65.1917 259.972 60.7203 233.029 66.3684C206.086 72.0165 182.167 87.3884 165.837 109.55C149.507 131.712 141.909 159.111 144.495 186.517C147.081 213.924 159.669 239.419 179.855 258.135L168.975 269.866Z" fill="#46C89D"/>
<path d="M256 304C235.184 303.997 214.681 298.928 196.262 289.231L203.739 275.087C227.128 287.42 254.125 291.082 279.954 285.424C305.783 279.767 328.777 265.155 344.869 244.174C360.96 223.193 369.111 197.196 367.879 170.784C366.646 144.372 356.11 119.247 338.135 99.8555L349.866 88.9746C366.798 107.237 378.034 130.043 382.198 154.596C386.363 179.15 383.274 204.385 373.31 227.209C363.347 250.033 346.941 269.455 326.105 283.095C305.268 296.735 280.905 304 256 304V304Z" fill="#46C89D"/>
<path d="M328 216V136L256 96L184 136V216L256 256L328 216Z" fill="#76D6B4"/>
<path d="M304 192H288V164.53L255.649 145.119L227.577 159.156L220.422 144.845L252.422 128.845C253.626 128.243 254.962 127.954 256.307 128.006C257.651 128.057 258.962 128.447 260.116 129.14L300.116 153.14C301.3 153.851 302.281 154.856 302.961 156.059C303.642 157.261 303.999 158.619 304 160V192Z" fill="#46C89D"/>
<path d="M351.999 480C338.091 480.014 324.212 478.751 310.535 476.227L313.463 460.496C326.174 462.841 339.073 464.014 351.999 464C386.07 464 419.16 455.849 445.171 441.047L453.084 454.953C424.7 471.104 388.8 480 351.999 480Z" fill="#FFC7D3"/>
<path d="M468.78 444.725L459.219 431.896C464.581 427.924 469.583 423.487 474.167 418.637L485.834 429.586C480.604 435.123 474.898 440.189 468.78 444.725Z" fill="#FFC7D3"/>
<path d="M74.5449 145.324L58.7656 142.676C59.7026 137.092 60.8921 131.483 62.3018 126.006L77.7969 129.994C76.501 135.03 75.4067 140.188 74.5449 145.324Z" fill="#BDECDC"/>
<path d="M62.3013 225.995C58.1089 209.661 55.9918 192.864 56 176.001C56 170.454 56.23 164.85 56.6841 159.344L72.6304 160.658C72.2119 165.729 72 170.891 72 176.001C71.9917 191.519 73.9392 206.976 77.7964 222.007L62.3013 225.995Z" fill="#BDECDC"/>
<path d="M64 32C63.7731 32.0008 63.5533 32.0791 63.3769 32.222C63.2006 32.3648 63.0784 32.5636 63.0305 32.7854C61.3619 40.1685 57.6351 46.9276 52.2821 52.2791C46.929 57.6307 40.1689 61.3556 32.7854 63.0222C32.5636 63.0701 32.3648 63.1923 32.2219 63.3686C32.0791 63.5449 32.0008 63.7648 32 63.9917V64.0083C32.0008 64.2352 32.0791 64.4551 32.2219 64.6314C32.3648 64.8077 32.5636 64.9299 32.7854 64.9778C40.1689 66.6444 46.929 70.3693 52.2821 75.7209C57.6351 81.0724 61.3619 87.8315 63.0305 95.2146C63.0784 95.4364 63.2006 95.6352 63.3769 95.778C63.5533 95.9209 63.7731 95.9992 64 96H64.0083C64.2352 95.9992 64.4551 95.9209 64.6314 95.7781C64.8077 95.6352 64.9299 95.4365 64.9778 95.2147C66.6444 87.8311 70.3693 81.071 75.7209 75.7179C81.0724 70.3649 87.8315 66.6381 95.2146 64.9695C95.4364 64.9216 95.6352 64.7994 95.778 64.6231C95.9209 64.4467 95.9992 64.2269 96 64V63.9917C95.9992 63.7648 95.9209 63.5449 95.7781 63.3686C95.6352 63.1923 95.4365 63.0701 95.2147 63.0222C87.8311 61.3556 81.071 57.6307 75.7179 52.2791C70.3649 46.9276 66.6381 40.1685 64.9695 32.7854C64.9216 32.5636 64.7994 32.3648 64.6231 32.222C64.4467 32.0791 64.2269 32.0008 64 32Z" fill="#46C89D"/>
</svg>
